<?xml version="1.0" standalone="no"?>
<!DOCTYPE svg PUBLIC "-//W3C//DTD SVG 20010904//EN"
 "http://www.w3.org/TR/2001/REC-SVG-20010904/DTD/svg10.dtd">
<svg version="1.0" xmlns="http://www.w3.org/2000/svg"
 width="400.000000pt" height="400.000000pt" viewBox="0 0 400.000000 400.000000"
 preserveAspectRatio="xMidYMid meet">
<metadata>
Created by potrace 1.14, written by Peter Selinger 2001-2017
</metadata>
<g transform="translate(0.000000,400.000000) scale(0.100000,-0.100000)"
fill="#000000" stroke="none">
<path d="M0 2000 l0 -2000 2000 0 2000 0 0 2000 0 2000 -2000 0 -2000 0 0
-2000z m2566 1532 c-3 -5 12 -8 34 -8 21 1 36 -3 32 -8 -3 -5 2 -6 12 -3 10 4
23 4 29 0 7 -5 22 -8 35 -8 43 -1 204 -189 208 -243 1 -15 12 -52 24 -82 12
-30 28 -71 36 -90 16 -42 18 -196 3 -259 -5 -25 -11 -71 -11 -103 -1 -33 -5
-61 -9 -64 -7 -4 -4 -80 5 -123 3 -13 2 -29 -2 -35 -12 -19 -11 -40 1 -48 9
-6 8 -8 -2 -8 -11 0 -11 -3 -1 -15 9 -10 9 -15 1 -15 -10 0 -15 13 -13 32 1 3
-6 12 -16 20 -16 12 -16 11 -2 -6 14 -18 13 -19 -4 -12 -19 7 -19 6 -2 -13 17
-19 17 -21 2 -27 -9 -3 -13 -11 -10 -16 4 -6 -4 -4 -17 3 -13 7 -33 14 -43 16
-11 2 -26 8 -33 15 -8 6 -27 11 -44 10 -17 0 -27 4 -23 9 3 6 -4 7 -19 4 -14
-4 -36 -1 -49 6 -21 11 -22 11 -9 -4 7 -10 9 -17 3 -17 -5 0 -17 11 -26 24 -8
14 -23 23 -33 22 -10 -2 -31 1 -46 5 -24 7 -27 6 -17 -6 8 -10 9 -15 2 -15 -6
0 -14 5 -17 10 -3 6 -13 10 -21 10 -8 0 -12 -4 -9 -10 10 -16 -22 -11 -39 6
-9 8 -16 12 -16 7 0 -5 -12 -9 -27 -10 -38 -1 -105 -28 -96 -38 5 -4 2 -5 -4
-1 -17 9 -55 -12 -47 -26 4 -7 3 -8 -5 -4 -6 4 -8 13 -4 19 4 7 0 6 -10 -2 -9
-7 -17 -11 -17 -8 0 3 -11 -5 -24 -18 -15 -15 -31 -22 -40 -19 -10 4 -16 1
-16 -9 0 -9 -9 -19 -20 -22 -19 -6 -20 -12 -14 -68 3 -34 10 -79 15 -99 11
-44 38 -64 55 -40 14 19 54 26 54 9 0 -18 112 -16 126 2 9 11 29 13 90 8 43
-3 99 -1 124 4 69 16 134 19 121 6 -16 -16 -14 -37 3 -31 15 6 30 -22 20 -38
-4 -6 6 -3 23 7 24 14 36 15 66 7 36 -10 39 -9 87 37 28 27 50 55 50 64 0 9 5
19 10 22 6 4 8 10 5 15 -3 4 2 24 10 44 8 19 15 52 16 73 l1 38 9 -35 c14 -53
59 -362 54 -370 -3 -4 -7 -36 -10 -71 -3 -35 -15 -102 -26 -149 -11 -47 -23
-101 -26 -120 -3 -19 -11 -38 -17 -42 -8 -6 -8 -10 1 -15 12 -9 3 -125 -18
-223 -17 -84 -18 -112 -4 -126 14 -14 18 -134 5 -134 -8 0 -23 -39 -21 -54 1
-5 -5 -6 -14 -3 -12 5 -15 -1 -15 -27 0 -22 -5 -33 -15 -33 -8 0 -15 4 -15 9
0 4 -4 8 -8 8 -5 0 -7 -23 -5 -51 1 -27 -1 -48 -5 -45 -5 3 -6 -9 -4 -27 3
-18 1 -29 -3 -25 -4 4 -17 2 -29 -4 -11 -7 -25 -12 -31 -13 -5 0 -11 -10 -13
-22 -2 -13 -8 -20 -16 -17 -18 7 -30 -27 -14 -37 10 -6 8 -12 -9 -24 -14 -10
-20 -22 -16 -31 5 -13 1 -15 -15 -9 -14 4 -22 2 -22 -6 0 -8 -4 -8 -16 2 -13
11 -17 10 -26 -4 -5 -10 -13 -15 -19 -12 -5 4 -9 1 -9 -6 0 -7 -7 -4 -16 7
-15 19 -16 19 -9 -1 4 -11 10 -28 12 -37 3 -10 9 -15 14 -12 5 3 6 -2 3 -10
-3 -9 -13 -16 -21 -16 -8 0 -12 4 -8 9 3 5 0 13 -6 17 -7 4 -9 3 -5 -4 10 -16
-14 -26 -27 -12 -9 10 -9 11 1 6 6 -4 12 -2 12 3 0 6 -6 11 -12 11 -10 0 -9 3
1 9 10 6 10 10 1 16 -6 4 -14 4 -17 1 -3 -3 -13 0 -22 7 -14 10 -14 10 -3 -5
8 -9 11 -22 7 -28 -10 -16 -24 -12 -24 7 -1 41 -5 51 -17 46 -10 -3 -9 -12 2
-38 12 -30 12 -36 -2 -49 -8 -9 -13 -16 -9 -16 3 0 1 -9 -5 -20 -6 -11 -15
-18 -21 -15 -5 4 -8 1 -7 -6 2 -7 -4 -13 -12 -14 -8 0 -14 -9 -13 -19 1 -14
-4 -17 -25 -13 -24 5 -63 -19 -53 -32 3 -3 -4 -8 -15 -10 -10 -2 -22 -8 -25
-13 -3 -5 -9 -3 -12 6 -3 8 -1 18 5 22 7 5 8 2 3 -6 -5 -8 -4 -11 3 -6 6 4 9
13 6 21 -5 11 -9 11 -24 -3 -11 -8 -27 -17 -37 -18 -10 -2 -19 -8 -21 -13 -2
-7 -10 -4 -19 5 -15 14 -17 14 -25 -1 -6 -10 -6 -21 1 -29 12 -15 9 -15 -63
-19 -29 -1 -51 -7 -54 -14 -6 -21 -22 -14 -22 10 0 16 -3 18 -9 8 -6 -9 -18
-11 -36 -7 -19 5 -25 4 -19 -5 5 -9 1 -10 -15 -6 -15 4 -24 0 -27 -11 -8 -24
-26 -60 -20 -40 3 12 1 15 -9 11 -8 -3 -13 -9 -10 -13 3 -4 -2 -14 -11 -21
-13 -10 -17 -10 -24 1 -4 7 -15 10 -24 7 -10 -4 -16 -1 -16 8 0 8 -7 15 -16
15 -9 0 -12 5 -8 12 4 7 3 8 -5 4 -6 -4 -19 -2 -28 6 -14 11 -15 11 -9 0 7
-11 4 -11 -12 -1 -12 7 -18 17 -15 23 4 5 -1 7 -10 3 -10 -3 -17 -3 -17 2 0 5
-9 11 -19 14 -12 3 -21 15 -23 33 -2 19 -9 29 -20 29 -9 0 -20 4 -25 9 -5 5
-2 6 6 1 10 -5 12 -4 7 4 -4 6 -13 11 -19 9 -20 -3 -61 14 -78 33 -9 10 -19
16 -23 12 -3 -3 -6 6 -6 21 0 15 -4 25 -9 22 -4 -3 -7 8 -5 24 2 16 -1 32 -6
35 -6 3 -5 16 2 31 9 19 9 30 0 45 -7 10 -12 26 -12 34 0 15 21 21 34 8 12
-13 46 -10 46 4 0 8 -5 11 -12 7 -7 -5 -8 -3 -3 6 6 10 11 9 22 -5 8 -12 13
-14 13 -6 0 11 3 11 15 1 8 -7 15 -9 15 -5 0 5 9 0 20 -10 19 -17 26 -12 21
17 -1 8 28 -1 45 -14 7 -5 14 -3 18 7 3 8 1 15 -3 15 -5 0 -12 7 -15 16 -5 13
-1 15 18 12 16 -3 23 -1 20 7 -3 6 2 18 11 25 12 10 15 10 15 0 0 -8 3 -11 6
-7 3 3 17 2 30 -3 18 -7 22 -6 17 5 -7 20 -1 19 40 -5 20 -12 42 -18 53 -14
16 5 16 4 4 -5 -8 -6 -10 -11 -5 -11 6 0 16 5 22 11 13 13 83 16 101 5 14 -8
68 21 57 32 -3 4 -10 0 -15 -8 -6 -8 -10 -11 -10 -7 0 5 9 20 20 35 22 28 17
40 -21 47 -13 3 -46 9 -74 14 -27 6 -84 13 -125 16 -108 8 -201 26 -194 36 3
5 1 9 -5 9 -12 0 -35 39 -28 47 7 6 130 16 187 15 25 0 92 -1 149 -1 58 -1
107 -5 111 -10 7 -12 189 -31 250 -27 28 2 64 -4 94 -16 36 -14 51 -16 56 -7
6 8 13 8 29 0 17 -10 21 -9 21 3 0 10 6 13 15 10 8 -4 15 -1 15 5 0 6 -6 10
-12 9 -8 -2 -12 5 -10 18 3 26 -32 59 -54 50 -14 -5 -15 -4 -4 9 9 11 9 15 1
15 -7 0 -10 4 -6 9 3 5 1 12 -5 16 -5 3 -10 0 -10 -7 0 -10 -2 -10 -9 1 -5 7
-22 15 -39 17 -27 3 -30 1 -27 -21 3 -35 -27 -40 -122 -22 -131 26 -165 29
-246 19 -82 -11 -129 -4 -181 25 -22 12 -55 16 -128 16 -60 -1 -101 4 -105 10
-4 6 -1 13 5 15 7 2 10 13 6 28 -4 15 -2 24 6 24 7 0 10 -7 6 -15 -7 -20 7
-19 35 4 22 18 23 18 43 0 21 -21 61 -25 71 -9 4 6 11 8 16 5 5 -4 9 -2 9 4 0
5 10 7 23 4 12 -3 55 -6 95 -7 39 0 72 -5 72 -10 0 -6 5 -5 12 2 7 7 19 12 28
12 9 0 22 11 28 25 6 14 16 25 22 25 5 0 10 5 10 11 0 5 -4 7 -10 4 -12 -8
-13 5 -1 24 5 8 14 10 21 6 8 -5 11 -4 7 2 -10 17 24 25 41 11 12 -10 14 -10
8 0 -5 8 0 12 14 12 26 0 66 39 86 83 8 17 21 42 30 54 14 20 14 22 -7 28 -13
4 -45 21 -71 37 -45 28 -51 29 -96 19 -147 -33 -191 -24 -253 50 -45 54 -53
57 -80 33 -19 -17 -115 -29 -123 -15 -3 4 4 26 15 49 14 28 25 39 36 35 11 -4
14 0 11 18 -2 19 -9 24 -30 24 -20 1 -28 -4 -28 -17 0 -10 -4 -18 -8 -18 -11
0 -32 -61 -32 -93 0 -15 -4 -27 -8 -27 -4 0 -6 -16 -4 -36 3 -23 1 -34 -6 -30
-6 4 -7 -7 -1 -32 4 -20 10 -59 13 -87 2 -27 5 -54 5 -58 1 -5 6 -5 13 -1 7 4
8 3 4 -5 -5 -7 4 -23 20 -38 22 -20 25 -28 14 -31 -8 -3 -24 -12 -34 -21 -11
-9 -16 -11 -13 -4 4 6 2 13 -5 15 -19 7 -58 -3 -52 -13 8 -13 -10 -11 -25 4
-11 10 -13 10 -7 0 4 -7 3 -13 -3 -13 -5 0 -11 6 -14 13 -3 9 -7 9 -19 -1 -19
-15 -38 -12 -56 8 -11 13 -11 11 -2 -8 6 -12 15 -20 19 -17 5 3 11 -2 15 -10
3 -8 0 -17 -6 -21 -6 -4 -8 -3 -4 4 7 12 -29 26 -44 17 -6 -4 -16 -2 -23 4 -7
6 -18 6 -26 1 -8 -4 -20 -6 -28 -3 -7 3 -13 -2 -13 -11 0 -18 -2 -19 -24 -10
-9 3 -14 10 -11 14 3 5 0 21 -5 36 -10 25 -9 26 7 13 17 -13 17 -13 0 14 -10
15 -15 32 -12 37 7 11 -41 60 -58 60 -5 0 -7 9 -4 20 3 11 1 20 -4 20 -5 0 -9
9 -9 20 0 19 -9 24 -35 21 -6 0 -10 15 -10 33 1 19 -1 34 -4 33 -3 -1 -8 3
-10 8 -3 6 -11 16 -18 23 -7 7 -13 25 -13 39 0 22 -25 79 -41 93 -17 15 -39
79 -49 143 -14 82 -2 150 28 162 46 19 71 23 75 12 4 -14 326 -16 397 -3 25 5
57 8 73 7 15 -1 27 3 27 7 0 12 38 8 51 -5 13 -13 27 -8 126 39 54 27 62 34
69 67 4 20 6 40 5 45 -1 4 7 22 17 40 24 40 33 74 21 82 -5 3 -7 10 -4 15 4 5
1 9 -5 9 -7 0 -9 7 -6 17 4 10 4 14 0 11 -4 -4 -18 2 -32 12 -13 11 -29 20
-35 20 -6 0 -20 9 -31 19 -30 28 -117 70 -133 64 -7 -3 -32 4 -55 16 -32 15
-55 19 -88 15 -32 -3 -41 -2 -30 6 9 6 10 10 3 10 -6 0 -14 -4 -18 -9 -3 -6
-17 -4 -32 4 -20 10 -31 11 -40 3 -9 -7 -13 -7 -13 1 0 8 -5 9 -19 1 -24 -12
-44 -13 -37 -1 3 5 -9 8 -27 7 -43 -3 -64 4 -45 15 9 6 7 9 -9 9 -12 0 -30 3
-40 7 -16 6 -15 8 7 14 23 6 23 7 -7 8 -37 1 -37 0 -22 38 6 15 11 43 10 61 0
20 5 35 14 38 13 5 13 10 0 35 -14 26 -14 31 0 53 10 14 12 27 6 30 -5 3 -11
1 -13 -6 -3 -7 -5 3 -6 22 -2 43 -9 76 -18 92 -4 7 -3 8 4 4 7 -4 12 -2 12 4
0 6 11 16 25 22 19 9 22 14 14 24 -9 11 -7 15 7 21 16 6 16 7 1 12 -13 5 -12
8 8 18 14 6 23 8 20 3 -3 -4 2 -11 11 -14 12 -5 15 -2 10 10 -3 8 -6 20 -6 25
0 5 -6 9 -14 9 -9 0 -13 10 -12 25 1 23 8 29 29 26 4 0 7 4 7 10 0 5 5 7 10 4
6 -3 10 0 10 8 0 8 11 18 25 21 17 4 27 16 33 39 4 17 12 30 17 29 4 -2 12 3
17 12 5 9 13 14 18 11 5 -3 28 3 52 14 58 26 81 35 92 32 4 -1 13 2 20 7 18
16 95 29 193 35 28 1 43 7 43 15 0 7 4 11 9 8 5 -4 11 -1 13 4 2 6 16 12 32
14 15 2 32 9 37 17 8 12 10 12 19 -1 5 -8 10 -10 10 -5 0 6 -6 17 -12 24 -11
11 -9 12 10 6 16 -4 22 -2 22 8 0 24 39 28 58 7 8 -11 20 -16 25 -13 5 3 15
-4 23 -16 8 -12 20 -21 25 -21 6 0 1 12 -10 27 -12 14 -19 29 -16 32 4 3 10
-1 15 -9 8 -12 10 -11 11 5 0 19 1 18 11 -2 6 -13 15 -23 20 -23 5 0 6 6 2 13
-6 9 -5 9 7 0 8 -7 29 -10 47 -8 31 4 45 -9 20 -18 -7 -2 -1 -4 15 -4 15 0 27
4 27 10 0 6 3 7 7 4 3 -4 13 -1 21 5 17 15 44 20 36 7 -8 -13 10 -11 25 4 11
10 12 8 3 -9 -9 -18 -8 -21 6 -19 27 2 52 16 47 25 -8 13 24 33 45 27 14 -4
25 2 36 18 13 21 25 27 67 34 5 0 6 -3 3 -7z m-1323 -1029 c-7 -2 -19 -2 -25
0 -7 3 -2 5 12 5 14 0 19 -2 13 -5z m60 0 c-7 -2 -19 -2 -25 0 -7 3 -2 5 12 5
14 0 19 -2 13 -5z m1337 -29 c0 -8 -19 -13 -24 -6 -3 5 1 9 9 9 8 0 15 -2 15
-3z m-35 -22 c-3 -3 -11 0 -18 7 -9 10 -8 11 6 5 10 -3 15 -9 12 -12z m743
-174 c25 -25 10 -53 -77 -140 -49 -48 -91 -88 -94 -88 -2 0 -5 22 -5 49 -2 51
0 54 75 149 36 44 75 56 101 30z m-1890 -105 c30 -3 48 -9 41 -13 -6 -5 -21
-6 -33 -4 -12 2 -39 6 -61 10 -83 13 -43 19 53 7z m1 -45 c8 -7 11 -8 8 -3 -3
7 15 11 50 11 50 1 54 -1 37 -13 -11 -8 -29 -12 -41 -10 -12 2 -20 0 -17 -4 2
-5 -14 -7 -37 -6 -24 2 -44 8 -47 15 -2 8 2 10 14 5 12 -4 15 -3 10 5 -10 16
6 15 23 0z m1854 -155 c15 -5 17 -20 17 -132 0 -109 -4 -135 -26 -196 -14 -38
-25 -83 -24 -98 1 -34 -35 -153 -56 -184 -19 -30 -69 -55 -102 -51 -26 3 -27
6 -25 53 1 28 2 67 2 89 1 21 10 51 22 67 17 24 18 32 7 51 -14 27 -12 247 3
262 5 6 22 -3 44 -24 38 -37 46 -35 64 19 19 57 14 93 -16 116 -28 23 -25 41
11 55 14 5 28 3 41 -6 11 -8 28 -17 38 -21z m-2103 -498 c0 -8 -2 -15 -4 -15
-2 0 -6 7 -10 15 -3 8 -1 15 4 15 6 0 10 -7 10 -15z m165 -233 c-3 -3 -11 0
-18 7 -9 10 -8 11 6 5 10 -3 15 -9 12 -12z m1154 -185 c0 -21 -1 -21 -9 -2
-12 28 -12 37 0 30 6 -3 10 -16 9 -28z m-1065 -60 c16 -22 18 -30 7 -36 -9 -6
-10 -11 -2 -15 17 -11 13 -23 -10 -29 -20 -5 -20 -7 -5 -22 22 -23 20 -25 -14
-15 -26 7 -82 52 -77 62 1 2 -2 0 -7 -4 -17 -14 -23 -9 -20 17 3 35 24 57 46
52 10 -3 16 -1 13 3 -6 10 14 19 34 17 8 -1 23 -15 35 -30z m1451 -7 c3 -5 1
-10 -4 -10 -6 0 -11 5 -11 10 0 6 2 10 4 10 3 0 8 -4 11 -10z m-325 -387 c0
-7 5 -13 11 -13 5 0 7 -5 3 -12 -5 -8 -11 -5 -17 10 -11 25 -37 37 -37 17 0
-19 -17 -28 -26 -14 -4 8 -3 9 4 5 7 -4 12 -2 12 3 0 6 -8 12 -17 12 -17 1
-17 2 0 6 9 2 17 9 17 14 0 4 11 3 25 -3 14 -6 25 -17 25 -25z m-209 -126
c-10 -9 -11 -8 -5 6 3 10 9 15 12 12 3 -3 0 -11 -7 -18z"/>
<path d="M2895 2420 c3 -5 8 -10 11 -10 2 0 4 5 4 10 0 6 -5 10 -11 10 -5 0
-7 -4 -4 -10z"/>
<path d="M2448 2133 c7 -3 16 -2 19 1 4 3 -2 6 -13 5 -11 0 -14 -3 -6 -6z"/>
<path d="M2356 2115 c-3 -9 -4 -21 0 -26 3 -5 1 -9 -5 -9 -5 0 -12 8 -14 18
-4 16 -5 16 -6 -1 -1 -12 -6 -16 -13 -11 -10 5 -10 4 0 -7 13 -14 62 -21 62
-8 0 4 9 5 20 2 11 -3 17 -9 14 -14 -3 -5 -2 -9 3 -10 17 -2 50 -6 108 -14 77
-11 113 -9 131 6 22 18 17 24 -19 23 -38 -2 -174 20 -184 29 -3 4 -13 1 -21
-6 -9 -6 -13 -7 -10 -2 4 6 -2 17 -14 24 -16 10 -19 10 -12 -1 4 -7 -2 -5 -13
5 -19 16 -21 16 -27 2z"/>
<path d="M1632 1331 c6 -21 24 -25 31 -6 4 8 2 15 -3 15 -6 0 -10 -6 -10 -12
0 -9 -4 -8 -11 2 -9 12 -10 12 -7 1z"/>
<path d="M2820 901 c0 -5 5 -13 10 -16 6 -3 10 -2 10 4 0 5 -4 13 -10 16 -5 3
-10 2 -10 -4z"/>
<path d="M2746 835 c-3 -8 -1 -15 4 -15 6 0 10 7 10 15 0 8 -2 15 -4 15 -2 0
-6 -7 -10 -15z"/>
<path d="M1870 826 c0 -2 7 -7 16 -10 8 -3 12 -2 9 4 -6 10 -25 14 -25 6z"/>
<path d="M2734 801 c5 -8 3 -16 -5 -22 -10 -6 -7 -8 9 -6 26 2 28 10 5 28 -14
12 -15 12 -9 0z"/>
<path d="M2700 744 c0 -8 5 -12 10 -9 6 4 8 11 5 16 -9 14 -15 11 -15 -7z"/>
<path d="M2497 736 c-4 -10 -1 -13 8 -9 8 3 12 9 9 14 -7 12 -11 11 -17 -5z"/>
<path d="M2540 721 c0 -5 5 -13 10 -16 6 -3 10 -2 10 4 0 5 -4 13 -10 16 -5 3
-10 2 -10 -4z"/>
</g>
</svg>
